<svg xmlns="http://www.w3.org/2000/svg" width="118.926" height="50" viewBox="0 0 118.926 50">
  <path id="Sustracción_5" data-name="Sustracción 5" d="M118.926,50H0V0H118.926V50ZM90.882,14.2a11.941,11.941,0,0,0-5.765,1.388A10.346,10.346,0,0,0,81.1,19.434a10.644,10.644,0,0,0-1.459,5.525A10.644,10.644,0,0,0,81.1,30.484a10.349,10.349,0,0,0,4.017,3.841,12.664,12.664,0,0,0,11.53,0,10.349,10.349,0,0,0,4.017-3.841,10.64,10.64,0,0,0,1.459-5.525,10.64,10.64,0,0,0-1.459-5.525,10.346,10.346,0,0,0-4.017-3.841A11.94,11.94,0,0,0,90.882,14.2Zm-22.222,0a12.184,12.184,0,0,0-5.809,1.374A10.115,10.115,0,0,0,58.834,19.4a10.782,10.782,0,0,0-1.445,5.554,10.782,10.782,0,0,0,1.445,5.554,10.165,10.165,0,0,0,3.988,3.826,11.893,11.893,0,0,0,5.722,1.374,15.623,15.623,0,0,0,4.508-.68,13.129,13.129,0,0,0,3.988-1.95V24.515H71.982v5.673a7.207,7.207,0,0,1-3.092.68,5.855,5.855,0,0,1-2.976-.754,5.263,5.263,0,0,1-2.023-2.1,6.387,6.387,0,0,1-.722-3.058,5.879,5.879,0,0,1,1.59-4.3,5.648,5.648,0,0,1,4.19-1.61,6.21,6.21,0,0,1,2.659.576,7.052,7.052,0,0,1,2.254,1.728L77.5,17.986a9.864,9.864,0,0,0-3.757-2.806A12.74,12.74,0,0,0,68.659,14.2Zm-24.477,0a11.941,11.941,0,0,0-5.765,1.388A10.346,10.346,0,0,0,34.4,19.434a10.644,10.644,0,0,0-1.459,5.525A10.644,10.644,0,0,0,34.4,30.484a10.349,10.349,0,0,0,4.017,3.841,12.664,12.664,0,0,0,11.53,0,10.354,10.354,0,0,0,4.017-3.841,10.644,10.644,0,0,0,1.459-5.525,10.644,10.644,0,0,0-1.459-5.525,10.351,10.351,0,0,0-4.017-3.841A11.937,11.937,0,0,0,44.183,14.2Zm-27.511.414V35.3H32.045V30.661H22.393V14.618Zm74.21,16.25a5.349,5.349,0,0,1-2.774-.739,5.288,5.288,0,0,1-1.965-2.083,6.961,6.961,0,0,1,0-6.175,5.288,5.288,0,0,1,1.965-2.083,5.577,5.577,0,0,1,5.548,0,5.286,5.286,0,0,1,1.965,2.083,6.957,6.957,0,0,1,0,6.175,5.286,5.286,0,0,1-1.965,2.083A5.349,5.349,0,0,1,90.882,30.868Zm-46.7,0a5.349,5.349,0,0,1-2.774-.739,5.288,5.288,0,0,1-1.965-2.083,6.961,6.961,0,0,1,0-6.175,5.288,5.288,0,0,1,1.965-2.083,5.577,5.577,0,0,1,5.548,0,5.286,5.286,0,0,1,1.965,2.083,6.957,6.957,0,0,1,0,6.175,5.286,5.286,0,0,1-1.965,2.083A5.349,5.349,0,0,1,44.183,30.868Z"/>
</svg>
